P3
64 48
255
211 211 211 	178 178 178 	 82  82  82 	 87  87  87 	101 101 101 	225 225 225 	230 230 230 	234 234 234 	209 209 209 	 88  88  88 	 88  88  88 	 88  88  88 	209 209 209 	234 234 234 	230 230 230 	225 225 225 	101 101 101 	 87  87  87 	 81  81  81 	188 188 188 	238 238 238 	226 226 226 	235 235 235 	119 119 119 	 84  84  84 	 79  79  79 	165 165 165 	242 242 242 	227 227 227 	242 242 242 	143 143 143 	 82  82  82 	 82  82  82 	143 143 143 	242 242 242 	227 227 227 	242 242 242 	165 165 165 	 79  79  79 	 84  84  84 	119 119 119 	235 235 235 	226 226 226 	238 238 238 	188 188 188 	 81  81  81 	 87  87  87 	101 101 101 	225 225 225 	230 230 230 	234 234 234 	209 209 209 	 88  88  88 	 88  88  88 	 88  88  88 	209 209 209 	234 234 234 	230 230 230 	225 225 225 	101 101 101 	 87  87  87 	 82  82  82 	178 178 178 	211 211 211 	
  0   0   0 	109 109 109 	154 154 154 	136 136 136 	155 155 155 	154 154 154 	125 125 125 	125 125 125 	160 160 160 	149 149 149 	138 138 138 	149 149 149 	160 160 160 	125 125 125 	125 125 125 	154 154 154 	155 155 155 	138 138 138 	144 144 144 	164 164 164 	128 128 128 	125 125 125 	146 146 146 	161 161 161 	140 140 140 	142 142 142 	164 164 164 	126 126 126 	116 116 116 	130 130 130 	157 157 157 	131 131 131 	131 131 131 	157 157 157 	130 130 130 	116 116 116 	126 126 126 	164 164 164 	142 142 142 	140 140 140 	161 161 161 	146 146 146 	125 125 125 	128 128 128 	164 164 164 	144 144 144 	138 138 138 	155 155 155 	154 154 154 	125 125 125 	125 125 125 	160 160 160 	149 149 149 	138 138 138 	149 149 149 	160 160 160 	125 125 125 	125 125 125 	154 154 154 	155 155 155 	136 136 136 	154 154 154 	109 109 109 	  0   0   0 	
  0   0   0 	102 102 102 	134 134 134 	117 117 117 	137 137 137 	149 151 150 	121 123 122 	122 124 123 	153 155 155 	130 130 132 	119 119 121 	130 130 132 	155 155 155 	123 123 123 	122 122 122 	150 150 150 	137 137 137 	119 119 119 	125 125 125 	157 157 157 	126 126 126 	123 123 123 	146 146 146 	145 145 145 	112 112 112 	114 114 114 	160 160 160 	159 159 159 	175 175 175 	199 199 199 	214 214 214 	208 208 208 	208 208 208 	214 214 214 	199 199 199 	175 175 175 	159 159 159 	160 160 160 	114 114 114 	112 112 112 	145 145 145 	146 146 146 	123 123 123 	126 126 126 	157 157 157 	125 125 125 	119 119 119 	137 137 137 	150 150 150 	122 122 122 	123 123 123 	155 155 155 	130 130 132 	119 119 121 	129 130 132 	154 154 154 	123 124 121 	122 122 120 	150 151 149 	137 137 137 	117 117 117 	134 134 134 	102 102 102 	  0   0   0 	
  0   0   0 	105 105 105 	148 148 148 	130 130 130 	148 148 148 	162 157 159 	137 130 132 	138 130 133 	169 164 162 	146 143 135 	135 132 125 	146 143 135 	163 163 161 	133 133 133 	132 132 132 	158 158 158 	148 148 148 	132 132 132 	137 137 137 	165 165 165 	137 137 137 	130 130 130 	143 143 143 	155 155 155 	170 170 170 	227 227 227 	255 255 255 	255 255 255 	255 255 255 	255 255 255 	255 255 255 	255 255 255 	255 255 255 	255 255 255 	255 255 255 	255 255 255 	255 255 255 	255 255 255 	227 227 227 	170 170 170 	155 155 155 	143 143 143 	130 130 130 	137 137 137 	165 165 165 	137 137 137 	132 132 132 	148 148 148 	158 158 158 	132 132 132 	133 133 133 	163 163 161 	146 143 135 	135 132 125 	146 143 134 	166 164 167 	133 131 142 	132 131 141 	159 157 165 	148 148 148 	130 130 130 	148 148 148 	105 105 105 	  0   0   0 	
210 210 210 	202 202 202 	155 155 155 	155 155 155 	169 167 168 	144 188 173 	108 171 151 	113 175 149 	127 172 187 	132 154 224 	127 152 215 	134 159 225 	174 179 191 	156 155 152 	154 154 155 	176 176 176 	168 168 168 	154 154 154 	159 159 159 	182 182 182 	148 148 148 	164 164 164 	218 218 218 	255 255 255 	228 228 228 	 72  72  72 	 68  68  68 	 65  65  65 	 64  64  64 	 64  64  64 	 64  64  64 	 64  64  64 	 64  64  64 	 64  64  64 	 64  64  64 	 64  64  64 	 65  65  65 	 68  68  68 	 72  72  72 	228 228 228 	255 255 255 	218 218 218 	164 164 164 	148 148 148 	182 182 182 	159 159 159 	154 154 154 	168 168 168 	176 176 176 	154 154 155 	156 155 152 	174 179 191 	134 159 225 	128 152 214 	129 154 229 	150 168 147 	155 168  74 	150 164  78 	173 184 121 	168 167 171 	155 155 154 	155 155 155 	202 202 202 	210 210 210 	
255 255 255 	216 216 216 	117 117 117 	123 124 124 	143 138 140 	 91 172 145 	 37 152 115 	 45 159 111 	 58 140 168 	 75 115 245 	 71 117 233 	 80 125 246 	145 154 176 	125 123 118 	121 121 123 	150 150 150 	139 139 139 	122 122 122 	122 122 122 	151 151 151 	171 171 171 	241 241 241 	255 255 255 	255 255 255 	206 206 206 	  0   0   0 	  0   0   0 	  0   0   0 	  0   0   0 	  0   0   0 	  0   0   0 	  0   0   0 	  0   0   0 	  0   0   0 	  0   0   0 	  0   0   0 	  0   0   0 	  0   0   0 	  0   0   0 	206 206 206 	255 255 255 	255 255 255 	241 241 241 	170 170 170 	151 151 151 	122 122 122 	122 122 122 	139 139 139 	150 150 150 	121 121 123 	125 123 118 	145 154 176 	 80 125 246 	 72 117 231 	 70 116 254 	100 133  95 	122 146   0 	112 140   0 	145 164  49 	140 139 145 	124 124 123 	117 117 117 	216 216 216 	255 255 255 	
255 255 255 	213 213 213 	116 116 116 	122 123 123 	141 137 139 	 99 174 148 	 48 154 120 	 56 160 116 	 70 145 171 	 84 121 240 	 79 122 228 	 88 130 241 	146 154 174 	123 122 117 	120 120 121 	149 149 149 	138 138 138 	121 121 121 	145 145 145 	235 235 235 	255 255 255 	255 255 255 	252 252 252 	255 255 255 	208 208 208 	  0   0   0 	  0   0   0 	  0   0   0 	  0   0   0 	  0   0   0 	  0   0   0 	  0   0   0 	  0   0   0 	  0   0   0 	  0   0   0 	  0   0   0 	  0   0   0 	  0   0   0 	  0   0   0 	208 208 208 	255 255 255 	251 251 251 	255 255 255 	255 255 255 	235 235 235 	145 145 145 	121 121 121 	138 138 138 	149 149 149 	120 120 121 	123 122 117 	146 154 174 	 88 130 241 	 80 121 227 	 79 122 248 	108 138 103 	127 149   0 	118 143   0 	148 166  60 	139 138 143 	123 123 122 	116 116 116 	213 213 213 	255 255 255 	
243 243 243 	214 214 214 	147 147 147 	150 151 150 	167 163 165 	 99 175 149 	 46 153 119 	 54 160 115 	 67 144 170 	 82 120 241 	 78 121 230 	 85 127 240 	162 170 191 	153 151 147 	149 149 150 	170 170 170 	168 168 168 	145 145 145 	208 208 208 	232 232 232 	223 223 223 	252 252 252 	248 248 248 	255 255 255 	216 216 216 	 30  30  30 	 32  32  32 	 32  32  32 	 32  32  32 	 32  32  32 	 32  32  32 	 32  32  32 	 32  32  32 	 32  32  32 	 32  32  32 	 32  32  32 	 32  32  32 	 32  32  32 	 30  30  30 	215 215 215 	255 255 255 	254 254 254 	251 251 251 	223 223 223 	232 232 232 	207 207 207 	144 144 144 	168 168 168 	170 170 170 	149 149 150 	153 151 147 	162 170 191 	 85 127 240 	 79 121 228 	 77 121 249 	106 137 101 	126 148   0 	116 142   0 	149 167  60 	165 164 170 	150 151 149 	147 147 147 	214 214 214 	243 243 243 	
  7   7   7 	116 116 116 	153 153 153 	136 137 136 	158 153 155 	 98 175 149 	 46 153 119 	 54 160 115 	 68 144 170 	 82 120 241 	 78 121 230 	 86 128 241 	156 164 185 	142 140 136 	135 136 137 	172 172 172 	131 131 131 	 21  21  21 	  9   9   9 	  4   4   4 	 11  11  11 	235 235 235 	212 212 212 	204 204 204 	255 255 255 	247 247 247 	249 249 249 	249 249 249 	249 249 249 	249 249 249 	249 249 249 	249 249 249 	249 249 249 	249 249 249 	249 249 249 	249 249 249 	249 249 249 	249 249 249 	249 249 249 	254 254 254 	254 254 254 	255 255 255 	227 227 227 	 14  14  14 	  4   4   4 	 10  10  10 	 21  21  21 	131 131 131 	172 172 172 	135 136 137 	142 140 136 	156 164 185 	 86 128 241 	 79 121 228 	 77 121 249 	106 138 101 	126 148   0 	116 142   0 	149 167  59 	155 154 160 	136 137 135 	153 153 153 	116 116 116 	  7   7   7 	
  0   0   0 	103 103 103 	136 136 136 	118 119 119 	141 137 139 	 97 174 148 	 46 154 119 	 54 160 115 	 68 144 170 	 83 120 239 	 78 120 227 	 87 129 240 	146 154 175 	121 119 115 	129 129 130 	124 124 124 	 13  13  13 	  0   0   0 	  0   0   0 	  0   0   0 	  5   5   5 	234 234 234 	207 207 207 	198 198 198 	255 255 255 	254 254 254 	255 255 255 	253 253 253 	252 252 252 	253 253 253 	255 255 255 	255 255 255 	253 253 253 	252 252 252 	253 253 253 	255 255 255 	255 255 255 	253 253 253 	252 252 252 	252 252 252 	252 252 252 	255 255 255 	222 222 222 	  5   5   5 	  0   0   0 	  3   3   3 	  0   0   0 	 10  10  10 	120 120 120 	128 129 130 	122 120 115 	146 154 174 	 87 129 240 	 79 120 226 	 78 120 248 	107 138 101 	126 148   0 	117 142   0 	148 165  58 	139 138 144 	119 119 118 	136 136 136 	103 103 103 	  0   0   0 	
  0   0   0 	 99  99  99 	143 143 143 	123 124 124 	147 142 144 	 98 174 148 	 46 153 119 	 54 160 115 	 65 142 171 	 80 120 248 	 77 122 237 	 85 130 249 	148 156 178 	131 129 125 	121 122 123 	  0   0   0 	  0   0   0 	  2   2   2 	  2   2   2 	  0   0   0 	  0   0   0 	239 239 239 	225 225 225 	218 218 218 	255 255 255 	255 255 255 	255 255 255 	255 255 255 	255 255 255 	255 255 255 	255 255 255 	255 255 255 	255 255 255 	255 255 255 	255 255 255 	255 255 255 	255 255 255 	255 255 255 	255 255 255 	255 255 255 	255 255 255 	255 255 255 	241 241 241 	 10  10  10 	  0   0   0 	  0   0   0 	  0   0   0 	  0   0   0 	 16  16  16 	123 123 124 	130 129 124 	148 157 179 	 85 130 249 	 78 122 235 	 75 121 255 	104 136 103 	126 149   0 	116 142   0 	148 166  58 	144 143 149 	124 124 123 	143 143 143 	 99  99  99 	  0   0   0 	
169 169 169 	187 187 187 	160 160 160 	156 157 157 	174 170 171 	100 176 150 	 47 154 118 	 48 156 117 	104 170 165 	153 161 203 	140 155 191 	148 163 201 	178 180 187 	161 160 159 	 76  76  77 	 90  90  91 	 91  91  93 	  7   7   7 	  0   0   0 	 24  24  25 	103 103 104 	205 205 206 	113 113 113 	 94  94  94 	158 158 159 	227 227 229 	215 215 217 	135 135 135 	121 121 120 	153 153 153 	228 228 230 	215 215 217 	135 135 135 	121 121 120 	153 153 153 	228 228 230 	215 215 217 	135 135 135 	121 121 120 	153 153 153 	227 227 229 	219 219 220 	120 120 120 	  0   0   0 	 24  24  25 	101 101 103 	 87  87  89 	 10  10  10 	  0   0   0 	 63  63  63 	168 167 165 	176 179 186 	149 163 201 	141 155 190 	148 161 211 	144 163  95 	120 145   0 	117 142   0 	150 168  60 	171 170 176 	157 157 156 	160 160 160 	187 187 187 	169 169 169 	
255 255 255 	220 220 220 	119 119 119 	126 127 126 	145 140 142 	 97 174 148 	 48 154 118 	 47 156 119 	117 176 152 	144 134 129 	126 125 118 	136 134 126 	168 168 166 	 69  69  68 	 45  45  45 	218 218 221 	188 188 191 	 17  17  17 	  0   0   0 	 54  55  56 	215 216 219 	171 171 174 	  1   1   2 	  0   0   0 	 35  35  36 	197 198 200 	169 170 172 	  0   0   0 	  0   0   0 	 36  36  36 	197 198 200 	169 170 172 	  0   0   0 	  0   0   0 	 36  36  37 	197 197 201 	170 169 173 	  0   0   0 	  0   0   0 	 36  36  37 	198 197 200 	169 169 172 	  0   0   0 	  0   0   0 	 55  54  55 	216 216 219 	188 188 191 	 16  16  17 	  0   0   0 	 53  53  54 	155 155 157 	151 150 149 	139 136 129 	127 125 116 	139 135 137 	156 169  82 	119 144   0 	118 143   0 	148 166  58 	142 141 147 	126 127 125 	119 119 119 	220 220 220 	255 255 255 	
255 255 255 	210 210 210 	117 117 117 	122 123 123 	141 137 139 	 97 174 148 	 48 154 118 	 47 156 119 	112 173 153 	136 129 133 	118 120 122 	133 133 134 	154 154 155 	  0   0   0 	 44  44  46 	199 199 203 	172 172 177 	 14  13  14 	  0   0   0 	 50  48  49 	199 198 201 	178 176 179 	 18  17  17 	  0   0   0 	 54  53  54 	204 202 207 	178 177 181 	 19  17  19 	  0   0   0 	 54  53  55 	204 202 207 	178 177 181 	 17  19  18 	  0   0   0 	 53  54  53 	202 204 205 	177 178 179 	 17  19  18 	  0   0   0 	 53  54  55 	202 204 207 	177 178 181 	 17  18  18 	  0   0   0 	 48  50  51 	198 199 203 	173 174 175 	 15  14  13 	  0   0   0 	 54  54  53 	192 192 193 	160 160 160 	129 130 132 	120 121 120 	131 130 142 	152 166  82 	119 145   0 	118 143   0 	148 165  58 	139 138 143 	123 123 121 	117 117 117 	210 210 210 	255 255 255 	
255 255 255 	220 220 220 	139 139 139 	143 144 144 	161 157 158 	 99 175 149 	 47 154 118 	 46 155 118 	117 177 157 	158 151 153 	139 141 140 	160 160 162 	103 103 102 	  0   0   0 	 58  58  54 	201 201 200 	177 176 174 	 20  21  18 	  0   0   0 	 51  55  56 	197 202 205 	172 176 179 	 17  21  21 	  0   0   0 	 51  55  55 	197 202 200 	172 176 175 	 17  21  17 	  0   0   0 	 51  55  52 	197 202 200 	172 176 175 	 21  17  21 	  0   0   0 	 55  51  56 	202 197 205 	176 172 179 	 21  17  21 	  0   0   0 	 55  51  53 	202 197 200 	176 172 175 	 21  17  17 	  0   0   0 	 55  51  52 	202 197 200 	173 172 178 	 16  17  22 	  0   0   0 	 51  51  57 	194 194 202 	186 186 189 	149 149 148 	143 143 141 	153 152 162 	157 171  86 	118 144   0 	118 143   0 	149 167  59 	158 157 163 	144 144 143 	139 139 139 	220 220 220 	255 255 255 	
 40  40  40 	132 132 132 	158 158 158 	144 145 144 	164 160 162 	 99 175 149 	 47 154 118 	 46 155 118 	118 178 157 	162 155 157 	145 146 148 	154 154 147 	174 174  23 	169 169   0 	176 176   9 	190 193  28 	200 190  12 	120 173  62 	  0 168 178 	 10 176 173 	 25 193 193 	 22 190 190 	  4 172 170 	  0 168 175 	 12 177 145 	 27 193  24 	 22 190  23 	  4 172   4 	  1 168   1 	  9 175   9 	 22 196  23 	 34 178  34 	160  15 160 	171   0 171 	175   9 175 	193  25 193 	190  22 190 	171   4 171 	169   3 171 	177  12  41 	193  25  19 	190  23  24 	172   4   4 	168   1   1 	173   8  10 	203  26  17 	 80  27 139 	  0   4 182 	  4   1 167 	  9   9 176 	 21  21 193 	 42  42 192 	146 146 153 	148 148 144 	157 155 166 	157 171  87 	118 144   0 	118 143   0 	149 167  60 	162 161 167 	144 144 143 	158 158 158 	132 132 132 	 40  40  40 	
  0   0   0 	100 100 100 	136 136 136 	118 119 118 	141 137 138 	 97 174 148 	 48 154 118 	 47 156 119 	113 173 153 	137 130 130 	117 119 130 	146 146  83 	198 198   0 	196 196   2 	195 195   0 	188 191   0 	203 191   0 	135 197  67 	  0 197 208 	  0 195 192 	  0 191 190 	  0 191 191 	  0 196 194 	  0 196 204 	  3 196 159 	  0 191   0 	  0 191   0 	  0 196   0 	  0 196   0 	  0 194   0 	  0 191   0 	  8 176   8 	180  13 180 	197   0 197 	194   0 194 	191   0 190 	191   0 191 	196   0 195 	197   2 200 	196   3  36 	190   0   0 	191   0   0 	196   0   0 	196   0   0 	192   0   0 	202   0   0 	 63   1 131 	  0   0 207 	  3   0 194 	  0   0 195 	  0   0 190 	  0   0 194 	 84  84 147 	130 130 116 	130 128 141 	153 167  82 	119 144   0 	118 143   0 	148 165  58 	138 137 143 	118 119 117 	136 136 136 	100 100 100 	  0   0   0 	
  0   0   0 	 97  97  97 	139 139 139 	120 121 120 	143 139 140 	 97 174 148 	 48 154 118 	 47 156 119 	114 174 153 	139 132 132 	120 122 133 	173 173  45 	194 194   0 	189 189   2 	190 190   0 	189 191   4 	202 191   0 	132 191  66 	  0 190 201 	  3 190 188 	  1 191 191 	  1 191 191 	  0 190 188 	  0 190 197 	  5 191 155 	  4 192   0 	  1 191   1 	  0 190   0 	  0 190   0 	  1 189   1 	  0 206   0 	 12 189  12 	188  11 188 	205   0 205 	189   1 189 	191   1 191 	191   1 191 	190   0 189 	190   2 193 	191   5  37 	191   1   0 	191   1   3 	190   0   0 	190   0   0 	188   0   3 	203   2   0 	 67   7 133 	  0   0 201 	  3   0 187 	  0   0 190 	  3   3 190 	  0   0 195 	 45  45 173 	133 133 119 	132 130 143 	153 167  83 	119 144   0 	118 143   0 	148 166  58 	140 139 145 	120 120 119 	139 139 139 	 97  97  97 	  0   0   0 	
124 124 124 	169 169 169 	162 162 162 	154 155 155 	173 169 170 	100 176 150 	 47 154 118 	 46 155 118 	120 180 159 	171 164 168 	157 159 150 	189 189  15 	192 192   0 	191 191   1 	191 191   0 	188 191   3 	202 191   0 	132 193  66 	  0 191 203 	  2 191 188 	  0 191 191 	  0 191 191 	  0 191 189 	  0 191 199 	  4 192 156 	  2 192   0 	  0 191   0 	  0 191   0 	  0 190   0 	  1 194   1 	  0 114   0 	 27 104  27 	104  27 104 	114   0 114 	194   1 194 	190   0 190 	191   0 191 	191   0 191 	192   2 194 	192   4  37 	191   0   0 	191   0   2 	191   0   0 	191   0   0 	188   0   2 	203   1   0 	 66   6 132 	  0   0 202 	  3   0 188 	  0   0 191 	  1   1 191 	  0   0 192 	 16  16 189 	150 150 156 	168 167 174 	159 173  89 	118 143   0 	118 143   0 	150 168  60 	170 169 175 	155 155 154 	162 162 162 	169 169 169 	124 124 124 	
255 255 255 	223 223 223 	124 124 124 	131 131 131 	149 145 146 	 98 174 148 	 48 154 118 	 47 156 119 	115 175 153 	142 135 146 	144 146 105 	194 194   0 	190 190   0 	191 191   0 	191 191   0 	188 191   3 	202 191   0 	132 192  66 	  0 191 202 	  2 191 188 	  0 191 191 	  0 191 191 	  0 191 189 	  0 191 199 	  4 192 156 	  2 191   0 	  0 191   0 	  0 191   0 	  0 190   0 	  2 198   2 	  0  22   0 	 43  19  43 	 19  43  19 	 22   0  22 	198   2 198 	190   0 190 	191   0 190 	191   0 190 	191   2 194 	192   4  37 	191   0   0 	191   0   2 	191   0   0 	191   0   0 	188   0   2 	202   1   0 	 66   6 132 	  0   0 202 	  3   0 188 	  0   0 191 	  0   0 191 	  0   0 190 	  0   0 194 	105 105 143 	146 144 145 	153 167  84 	119 144   0 	118 143   0 	148 166  59 	146 145 151 	131 131 130 	124 124 124 	223 223 223 	255 255 255 	
255 255 255 	209 209 209 	117 117 117 	122 123 123 	141 137 139 	 97 174 148 	 48 154 118 	 47 156 119 	114 174 151 	132 125 140 	148 150  76 	194 194   0 	189 189   2 	189 189   0 	189 189   0 	187 190   3 	201 189   0 	131 191  65 	  0 190 201 	  2 190 187 	  0 189 189 	  0 189 189 	  0 190 188 	  0 189 197 	  4 190 155 	  2 190   0 	  0 190   0 	  0 189   0 	  0 188   0 	  1 196   1 	  0  36   0 	 40  32  40 	 32  40  32 	 36   0  36 	196   1 196 	188   0 188 	189   0 189 	190   0 190 	190   2 192 	190   4  36 	189   0   0 	190   0   2 	189   0   0 	189   0   0 	187   0   2 	201   1   0 	 65   5 131 	  0   0 201 	  3   0 187 	  0   0 189 	  0   0 189 	  2   2 189 	  0   0 194 	 77  77 147 	140 139 136 	151 165  83 	119 144   0 	118 143   0 	148 165  58 	139 138 144 	123 123 122 	117 117 117 	209 209 209 	255 255 255 	
255 255 255 	223 223 223 	130 130 130 	136 137 137 	154 150 152 	 99 174 149 	 48 154 118 	 47 155 119 	117 177 153 	146 139 156 	171 172  74 	204 204   0 	196 196   2 	200 200   3 	201 201   3 	195 198   3 	211 199   0 	140 202  71 	  0 200 212 	  2 197 194 	  3 200 200 	  3 201 201 	  1 198 196 	  0 198 206 	  8 202 165 	  5 201   1 	  0 197   0 	  3 200   3 	  3 199   3 	  3 206   3 	  0  34   0 	 42  31  42 	 31  42  31 	 34   0  34 	206   3 206 	199   3 199 	200   3 200 	197   0 196 	201   5 203 	202   8  41 	198   0   0 	198   1   3 	201   3   3 	200   3   3 	194   0   2 	212   3   0 	 71   9 140 	  0   1 211 	  3   1 195 	  3   3 201 	  3   3 200 	  2   2 196 	  0   0 204 	 68  68 170 	156 154 150 	153 167  87 	119 144   0 	118 143   0 	149 166  60 	152 151 157 	137 137 136 	130 130 130 	223 223 223 	255 255 255 	
 80  80  80 	150 150 150 	162 162 162 	150 151 151 	170 166 167 	 98 177 150 	 45 155 118 	 43 156 118 	116 178 156 	176 168 174 	 83  85  61 	 46  46   0 	 89  89  45 	 39  39   0 	 38  38   0 	 81  81  38 	 65  62  15 	 23  37   8 	  2  49  52 	 46  89  89 	  0  41  41 	  0  37  37 	 31  76  75 	 24  69  70 	  0  37  29 	  0  45   0 	 46  90  46 	  0  44   0 	  0  37   0 	 26  72  26 	 17  27  17 	 27  25  27 	 25  27  25 	 27  17  27 	 72  26  72 	 37   0  37 	 44   0  44 	 90  46  90 	 45   0  45 	 37   0   1 	 69  24  22 	 76  31  31 	 37   0   0 	 41   0   0 	 89  45  46 	 52   4   2 	  8   0  23 	 15  18  65 	 38  37  81 	  0   0  38 	  0   0  39 	 45  45  89 	  0   0  46 	 57  57  81 	174 172 179 	156 171  84 	118 144   0 	118 144   0 	150 168  57 	167 166 172 	151 151 150 	162 162 161 	150 150 150 	 80  80  80 	
  0   0   0 	 98  98  98 	137 137 137 	118 119 119 	141 138 139 	104 170 148 	 57 150 118 	 57 151 119 	117 169 152 	143 137 139 	 54  55  59 	 28  28  38 	 77  77  86 	 16  16  26 	 16  16  25 	 69  69  78 	 46  46  56 	 18  15  21 	 40  30  29 	 89  80  80 	 29  20  20 	 25  16  16 	 72  62  63 	 63  54  53 	 24  15  17 	 34  24  34 	 90  81  90 	 33  24  33 	 25  15  25 	 66  56  66 	 63  61  63 	 59  59  59 	 59  59  59 	 61  63  61 	 56  66  56 	 15  25  15 	 24  33  24 	 81  90  81 	 25  34  24 	 15  24  23 	 54  63  64 	 62  72  72 	 15  25  25 	 20  29  29 	 80  89  89 	 29  39  40 	 21  24  18 	 56  55  45 	 79  79  70 	 25  25  15 	 26  26  16 	 86  86  77 	 38  38  28 	 61  61  53 	139 137 147 	152 164  90 	119 141   8 	118 140  10 	148 163  70 	139 138 143 	119 119 118 	137 137 137 	 98  98  98 	  0   0   0 	
  0   0   0 	 98  98  98 	137 137 137 	119 118 119 	137 140 139 	191 126 148 	179  88 118 	181  88 119 	186 135 152 	133 140 138 	 72  71  70 	 54  54  52 	 98  98  96 	 42  42  40 	 34  34  32 	 86  86  84 	 63  63  60 	 34  35  34 	 46  49  49 	 92  94  94 	 38  40  40 	 31  33  33 	 77  79  79 	 69  71  71 	 33  35  34 	 41  44  41 	 93  96  93 	 41  43  41 	 32  34  32 	 70  73  70 	 73  73  73 	 71  70  71 	 70  71  70 	 73  72  73 	 72  70  72 	 34  32  34 	 43  41  43 	 96  94  96 	 43  41  44 	 35  33  33 	 71  69  68 	 79  77  77 	 35  33  33 	 39  37  37 	 95  92  93 	 48  46  46 	 33  33  34 	 61  61  63 	 83  83  85 	 35  35  37 	 40  40  42 	 96  96  98 	 52  52  54 	 70  70  73 	138 139 130 	152 140 213 	119  98 230 	118  98 227 	148 133 225 	139 140 135 	119 119 120 	137 137 137 	 98  98  98 	  0   0   0 	
 80  80  80 	150 150 150 	162 162 162 	151 150 151 	164 168 167 	202 124 150 	191  81 118 	192  81 118 	197 136 156 	169 177 174 	 53  51  52 	  0   0   0 	 43  43  43 	  0   0   0 	 15  15  15 	 53  53  53 	 40  40  40 	  7   7   7 	 21  21  21 	 70  70  70 	  8   8   8 	 16  16  16 	 52  52  52 	 44  44  44 	  8   8   8 	 17  17  17 	 68  68  68 	 16  16  16 	 10  10  10 	 48  48  48 	 22  22  22 	 24  24  24 	 24  24  24 	 25  25  25 	 49  49  49 	 11  11  11 	 16  16  16 	 68  68  68 	 17  17  17 	  8   8   8 	 44  44  44 	 52  52  52 	  8   8   8 	 13  13  13 	 66  66  66 	 21  21  21 	  9   9   9 	 37  37  37 	 59  59  59 	  2   2   2 	  0   0   0 	 43  43  43 	  0   0   0 	 52  51  54 	174 176 166 	156 142 229 	118  93 250 	118  93 248 	150 132 242 	167 168 162 	151 150 152 	162 162 162 	150 150 150 	 80  80  80 	
255 255 255 	223 223 223 	130 130 130 	138 137 137 	149 153 152 	198 124 149 	188  83 118 	190  83 119 	193 134 153 	151 158 156 	 68  67  67 	  0   0   0 	  1   1   1 	  9   9   9 	165 165 165 	106 106 106 	147 147 147 	124 124 124 	125 125 125 	145 145 145 	105 105 105 	173 173 173 	131 131 131 	131 131 131 	131 131 131 	130 130 130 	131 131 131 	129 129 129 	133 133 133 	130 130 130 	 14  14  14 	 37  37  37 	 34  34  34 	 27  27  27 	138 138 138 	132 132 132 	129 129 129 	130 130 130 	131 131 131 	131 131 131 	130 130 130 	130 130 130 	131 131 131 	132 132 132 	127 127 127 	129 129 129 	134 134 134 	133 133 133 	139 139 139 	 93  93  93 	  0   0   0 	  4   4   4 	  0   0   0 	 67  67  69 	156 158 148 	153 140 223 	119  94 245 	118  94 242 	149 132 237 	152 153 147 	137 137 138 	130 130 130 	223 223 223 	255 255 255 	
255 255 255 	209 209 209 	117 117 117 	123 122 123 	136 140 139 	198 122 148 	189  83 118 	191  83 119 	191 131 151 	135 143 140 	 79  77  77 	  0   0   0 	  0   0   0 	  7   7   7 	161 161 161 	104 104 104 	144 144 144 	120 120 120 	122 122 122 	143 143 143 	102 102 102 	169 169 169 	129 129 129 	129 129 129 	127 127 127 	127 127 127 	129 129 129 	126 126 126 	129 129 129 	126 126 126 	 14  14  14 	 37  37  37 	 34  34  34 	 28  28  28 	134 134 134 	127 127 127 	125 125 125 	128 128 128 	127 127 127 	127 127 127 	127 127 127 	127 127 127 	127 127 127 	129 129 129 	125 125 125 	126 126 126 	130 130 130 	130 130 130 	137 137 137 	 90  90  90 	  0   0   0 	  3   3   3 	  0   0   0 	 78  77  80 	140 142 132 	151 138 222 	119  95 247 	118  94 244 	148 131 237 	139 140 134 	123 122 124 	117 117 117 	209 209 209 	255 255 255 	
255 255 255 	223 223 223 	124 124 124 	132 131 131 	143 148 146 	199 123 148 	189  83 118 	191  83 119 	193 133 153 	141 148 146 	106 104 105 	  0   0   0 	  0   0   0 	  7   7   7 	161 161 161 	104 104 104 	144 144 144 	120 120 120 	122 122 122 	143 143 143 	102 102 102 	169 169 169 	129 129 129 	129 129 129 	127 127 127 	127 127 127 	129 129 129 	126 126 126 	129 129 129 	127 127 127 	  5   5   5 	 29  29  29 	 26  26  26 	 19  19  19 	134 134 134 	127 127 127 	126 126 126 	128 128 128 	127 127 127 	127 127 127 	127 127 127 	127 127 127 	127 127 127 	129 129 129 	125 125 125 	126 126 126 	130 130 130 	130 130 130 	137 137 137 	 90  90  90 	  0   0   0 	  2   2   2 	  0   0   0 	105 105 107 	146 147 137 	153 140 224 	119  94 247 	118  94 244 	148 131 238 	146 147 141 	131 131 132 	124 124 124 	223 223 223 	255 255 255 	
124 124 124 	169 169 169 	162 162 162 	156 155 155 	168 172 170 	200 125 150 	188  83 118 	190  82 118 	198 139 159 	164 171 168 	151 149 150 	 16  16  16 	  0   0   0 	  8   8   8 	161 161 161 	104 104 104 	144 144 144 	121 121 121 	122 122 122 	143 143 143 	102 102 102 	169 169 169 	129 129 129 	129 129 129 	127 127 127 	127 127 127 	129 129 129 	126 126 126 	129 129 129 	125 125 125 	 59  59  59 	 72  72  72 	 71  71  71 	 68  68  68 	131 131 131 	128 128 128 	126 126 126 	128 128 128 	127 127 127 	127 127 127 	128 128 128 	128 128 128 	127 127 127 	129 129 129 	125 125 125 	126 126 126 	130 130 130 	130 130 130 	137 137 137 	 90  90  90 	  0   0   0 	  0   0   0 	 16  16  16 	150 150 152 	168 170 160 	159 145 229 	118  93 246 	118  94 243 	150 133 240 	170 171 166 	155 155 156 	162 162 162 	169 169 169 	124 124 124 	
  0   0   0 	 97  97  97 	139 139 139 	121 120 120 	138 142 140 	198 123 148 	189  83 118 	191  83 119 	193 133 153 	127 134 132 	134 132 133 	 46  46  46 	  0   0   0 	  9   9   9 	160 160 160 	104 104 104 	143 143 143 	120 120 120 	122 122 122 	142 142 142 	102 102 102 	169 169 169 	129 129 129 	128 128 128 	127 127 127 	127 127 127 	129 129 129 	126 126 126 	129 129 129 	123 123 123 	130 130 130 	130 130 130 	131 131 131 	133 133 133 	127 127 127 	128 128 128 	126 126 126 	128 128 128 	127 127 127 	128 128 128 	128 128 128 	128 128 128 	128 128 128 	129 129 129 	125 125 125 	126 126 126 	130 130 130 	131 131 131 	137 137 137 	 91  91  91 	  0   0   0 	  0   0   0 	 46  46  46 	133 132 134 	132 134 124 	153 140 224 	119  95 247 	118  94 244 	148 131 237 	140 141 135 	120 120 121 	139 139 139 	 97  97  97 	  0   0   0 	
  0   0   0 	100 100 100 	136 136 136 	119 118 118 	136 140 138 	198 122 148 	189  83 118 	191  83 119 	192 133 153 	125 132 130 	131 130 130 	 84  84  84 	  0   0   0 	  9   9   9 	164 164 164 	106 106 106 	146 146 146 	122 122 122 	123 123 123 	144 144 144 	103 103 103 	171 171 171 	130 130 130 	130 130 130 	128 128 128 	127 127 127 	130 130 130 	126 126 126 	130 130 130 	123 123 123 	121 121 121 	123 123 123 	123 123 123 	124 124 124 	127 127 127 	128 128 128 	125 125 125 	127 127 127 	127 127 127 	126 126 126 	126 126 126 	126 126 126 	126 126 126 	127 127 127 	124 124 124 	125 125 125 	128 128 128 	128 128 128 	135 135 135 	 87  87  87 	  0   0   0 	  0   0   0 	 84  84  84 	130 130 132 	130 132 122 	153 139 223 	119  95 247 	118  94 244 	148 131 237 	138 139 134 	118 118 119 	136 136 136 	100 100 100 	  0   0   0 	
 40  40  40 	132 132 132 	158 158 158 	145 144 144 	159 163 162 	200 124 149 	188  83 118 	190  82 118 	197 138 157 	152 159 157 	149 147 148 	149 149 149 	 20  20  20 	  2   2   2 	151 151 151 	 97  97  97 	134 134 134 	114 114 114 	118 118 118 	136 136 136 	 99  99  99 	161 161 161 	124 124 124 	123 123 123 	123 123 123 	125 125 125 	127 127 127 	124 124 124 	128 128 128 	121 121 121 	121 121 121 	122 122 122 	127 127 127 	128 128 128 	129 129 129 	130 130 130 	128 128 128 	129 129 129 	129 129 129 	132 132 132 	133 133 133 	133 133 133 	132 132 132 	134 134 134 	130 130 130 	131 131 131 	137 137 137 	139 139 139 	145 145 145 	102 102 102 	  7   7   7 	 39  39  39 	147 147 147 	148 148 150 	157 158 148 	157 144 228 	118  94 246 	118  94 243 	149 132 239 	162 163 157 	144 144 145 	158 158 158 	132 132 132 	 40  40  40 	
255 255 255 	220 220 220 	139 139 139 	145 144 144 	156 160 158 	199 124 149 	188  83 118 	190  82 118 	196 137 157 	149 156 153 	141 139 140 	162 162 162 	 98  98  98 	  0   0   0 	 14  14  14 	  8   8   8 	  6   6   6 	 28  28  28 	 59  59  59 	 56  56  56 	 54  54  54 	 59  59  59 	 57  57  57 	 54  54  54 	 65  65  65 	104 104 104 	104 104 104 	104 104 104 	104 104 104 	104 104 104 	103 103 103 	107 107 107 	148 148 148 	152 152 152 	151 151 151 	151 151 151 	151 151 151 	151 151 151 	151 151 151 	191 191 191 	201 201 201 	198 198 198 	199 199 199 	199 199 199 	199 199 199 	196 196 196 	232 232 232 	249 249 249 	246 246 246 	243 243 243 	241 241 241 	209 209 209 	146 146 146 	143 143 145 	153 155 145 	157 143 227 	118  94 246 	118  94 243 	149 132 239 	158 159 153 	144 144 145 	139 139 139 	220 220 220 	255 255 255 	
255 255 255 	210 210 210 	117 117 117 	123 122 123 	136 140 139 	198 122 148 	189  83 118 	191  83 119 	192 133 152 	128 134 130 	122 120 119 	133 133 131 	154 154 153 	 10  10  11 	  0   0   0 	  4   4   4 	  0   0   0 	 24  24  24 	 57  57  57 	 52  52  52 	 53  53  53 	 49  49  49 	 50  50  50 	 48  48  48 	 58  58  58 	101 101 101 	100 100 100 	100 100 100 	100 100 100 	100 100 100 	 99  99  99 	103 103 103 	148 148 148 	152 152 152 	151 151 151 	151 151 151 	151 151 151 	151 151 151 	151 151 151 	194 194 194 	204 204 204 	202 202 202 	203 203 203 	206 206 206 	207 207 207 	203 203 203 	241 241 241 	255 255 255 	255 255 255 	255 255 255 	246 246 246 	166 166 166 	130 129 127 	122 121 122 	132 133 122 	153 139 222 	119  95 247 	118  94 244 	148 131 237 	139 139 134 	123 122 124 	117 117 117 	210 210 210 	255 255 255 	
255 255 255 	220 220 220 	119 119 119 	127 126 126 	139 143 142 	198 123 148 	189  83 118 	191  83 118 	194 136 158 	129 139 144 	123 124 131 	131 134 141 	164 164 166 	 81  81  81 	  0   0   0 	  0   0   0 	  0   0   0 	  6   6   6 	 41  41  41 	 36  36  36 	 37  37  37 	 53  53  53 	 53  53  53 	 48  48  48 	 66  66  66 	110 110 110 	109 109 109 	109 109 109 	109 109 109 	109 109 109 	108 108 108 	113 113 113 	160 160 160 	165 165 165 	163 163 163 	164 164 164 	164 164 164 	163 163 163 	164 164 164 	210 210 210 	220 220 220 	218 218 218 	216 216 216 	200 200 200 	201 201 201 	197 197 197 	237 237 237 	255 255 255 	252 252 252 	255 255 255 	170 170 169 	146 147 148 	135 138 145 	122 124 133 	134 138 135 	154 142 229 	119  94 246 	118  94 244 	148 131 238 	142 143 137 	126 126 127 	119 119 119 	220 220 220 	255 255 255 	
169 169 169 	187 187 187 	160 160 160 	157 156 157 	169 173 171 	200 125 150 	188  82 117 	190  83 122 	195 130 134 	173 165 124 	170 154 118 	177 163 125 	184 181 174 	157 157 159 	111 111 110 	113 113 113 	109 109 109 	123 123 123 	138 138 138 	137 137 137 	136 136 136 	 40  40  40 	 43  43  43 	 53  53  53 	 31  31  31 	 63  63  63 	 62  62  62 	 62  62  62 	 62  62  62 	 62  62  62 	 61  61  61 	 64  64  64 	 89  89  89 	 91  91  91 	 90  90  90 	 91  91  91 	 91  91  91 	 90  90  90 	 91  91  91 	115 115 115 	121 121 121 	116 116 116 	133 133 133 	224 224 224 	227 227 227 	224 224 224 	246 246 246 	255 255 255 	255 255 255 	227 227 227 	152 152 154 	184 182 175 	177 163 125 	169 154 120 	178 165 115 	155 136 204 	118  95 250 	118  94 242 	150 133 240 	171 172 166 	157 156 158 	160 160 160 	187 187 187 	169 169 169 	
  0   0   0 	 99  99  99 	143 143 143 	125 124 124 	141 145 144 	198 123 148 	188  82 115 	192  87 131 	180 103  74 	166 125   0 	166 121   7 	175 130  12 	166 158 136 	122 123 128 	153 153 152 	255 255 255 	255 255 255 	255 255 255 	255 255 255 	255 255 255 	255 255 255 	 23  23  22 	 33  33  33 	 63  63  63 	  0   0   0 	  0   0   0 	  0   0   0 	  0   0   0 	  0   0   0 	  0   0   0 	  0   0   0 	  0   0   0 	  0   0   0 	  0   0   0 	  0   0   0 	  0   0   0 	  0   0   0 	  0   0   0 	  0   0   0 	  0   0   0 	  0   0   0 	  0   0   0 	 20  20  20 	252 252 252 	255 255 255 	255 255 255 	254 254 254 	255 255 255 	240 240 240 	137 137 136 	122 124 129 	166 158 136 	175 130  12 	165 121   9 	170 125   0 	141 109 143 	120  99 255 	118  93 241 	148 131 238 	144 145 139 	124 124 125 	143 143 143 	 99  99  99 	  0   0   0 	
  0   0   0 	103 103 103 	136 136 136 	119 118 119 	136 140 139 	198 122 148 	188  82 116 	192  87 130 	180 105  79 	162 124   6 	162 119  13 	171 129  19 	161 154 133 	121 123 127 	114 113 112 	155 155 155 	251 251 251 	252 252 253 	250 250 251 	253 253 253 	249 249 249 	 25  25  25 	 35  35  34 	 62  62  62 	  0   0   0 	  4   4   4 	  2   2   2 	  2   2   2 	  2   2   2 	  2   2   2 	  2   2   2 	  2   2   2 	  3   2   2 	  3   2   2 	  3   3   2 	  3   3   2 	  3   3   2 	  3   3   2 	  3   3   2 	  3   3   3 	  5   5   5 	  0   0   0 	 35  35  34 	248 248 248 	255 255 255 	252 252 253 	255 255 255 	255 255 255 	159 159 159 	117 117 116 	121 123 128 	161 154 133 	171 129  19 	161 119  15 	166 124   0 	141 111 148 	120  99 255 	118  93 241 	148 131 237 	139 140 134 	119 118 120 	136 136 136 	103 103 103 	  0   0   0 	
  7   7   7 	116 116 116 	153 153 153 	137 136 136 	152 156 155 	199 124 149 	188  82 115 	192  87 131 	180 105  78 	162 125   5 	163 120  12 	171 128  17 	172 164 143 	138 140 145 	141 140 139 	157 157 157 	182 182 183 	253 253 248 	255 255 255 	255 255 255 	253 253 255 	 22  22  24 	 32  32  35 	 61  61  64 	  0   0   0 	  0   0   2 	  0   0   0 	  0   0   0 	  0   0   0 	  0   0   0 	  0   0   0 	  0   0   0 	  0   0   0 	  0   0   0 	  0   0   0 	  0   0   0 	  0   0   0 	  0   0   0 	  0   0   0 	  0   0   0 	  0   0   2 	  0   0   0 	 29  29  31 	250 250 252 	255 255 255 	255 255 255 	253 253 248 	182 182 183 	157 157 157 	141 140 139 	138 140 145 	172 164 143 	171 128  17 	162 120  14 	167 124   0 	141 111 147 	120  99 255 	118  93 241 	149 132 238 	155 156 150 	136 136 137 	153 153 153 	116 116 116 	  7   7   7 	
243 243 243 	214 214 214 	147 147 147 	151 150 150 	162 166 165 	200 124 149 	188  81 115 	192  87 131 	180 105  78 	162 125   5 	163 120  13 	170 127  16 	178 170 149 	150 151 156 	149 149 148 	173 173 173 	158 158 160 	155 155 143 	197 197  68 	206 206  36 	201 201  49 	159 159   5 	162 162   8 	167 167  13 	153 153   0 	156 156   0 	155 155   0 	155 155   0 	155 155   0 	156 158   2 	156  30   4 	155   0   0 	155   0   0 	156  30   4 	156 158   2 	155 155   0 	155 155   0 	155 155   0 	155 155   0 	155 155   0 	155 155   0 	154 154   0 	160 160   6 	201 201  49 	206 206  36 	197 197  69 	155 155 143 	158 158 160 	173 173 173 	149 149 148 	150 151 156 	178 170 149 	170 127  16 	162 120  14 	167 124   0 	141 111 147 	120  99 255 	117  93 240 	149 132 239 	165 166 160 	150 150 151 	147 147 147 	214 214 214 	243 243 243 	
255 255 255 	213 213 213 	116 116 116 	123 122 123 	136 140 139 	198 123 148 	188  84 117 	192  88 131 	180 106  80 	163 126   8 	163 121  15 	172 130  20 	162 154 133 	120 122 126 	121 121 119 	149 149 149 	140 140 139 	119 119 123 	131 131 115 	181 181  44 	194 194   0 	200 200   0 	197 197   2 	196 196   0 	199 199   0 	199 199   0 	199 199   0 	199 199   0 	199 198   0 	200 202   2 	200  38   5 	199   0   0 	199   0   0 	200  38   5 	200 202   2 	199 198   0 	199 199   0 	199 199   0 	199 199   0 	199 199   0 	199 199   1 	199 199   4 	200 200   0 	194 194   0 	181 181  44 	131 131 115 	119 119 123 	140 140 139 	149 149 149 	121 121 119 	120 122 126 	162 154 133 	172 130  20 	162 121  17 	167 125   0 	142 112 148 	121 100 255 	119  95 240 	148 132 237 	139 139 134 	123 122 124 	116 116 116 	213 213 213 	255 255 255 	
255 255 255 	216 216 216 	117 117 117 	124 123 124 	137 141 140 	199 118 145 	189  75 111 	193  81 127 	179  98  70 	161 120   0 	162 116   1 	171 125   6 	162 154 131 	121 123 128 	122 121 120 	150 150 150 	139 139 140 	122 122 121 	126 126 131 	156 156 168 	149 149  83 	181 181  11 	190 190   0 	190 190   0 	188 188   2 	188 188   2 	189 189   1 	189 189   0 	189 189   0 	190 192   2 	190  36   5 	189   0   0 	189   0   0 	190  36   5 	190 192   2 	189 189   0 	189 189   0 	189 189   1 	188 188   2 	189 189   2 	189 189   0 	190 190   0 	181 181  12 	149 149  83 	156 156 168 	126 126 131 	122 122 121 	139 139 140 	150 150 150 	122 121 120 	121 123 128 	162 154 131 	171 125   6 	160 116   3 	166 120   0 	138 105 143 	116  93 255 	114  87 245 	145 126 241 	140 141 134 	124 124 125 	117 117 117 	216 216 216 	255 255 255 	
210 210 210 	202 202 202 	155 155 155 	155 155 155 	166 169 168 	203 158 173 	192 129 149 	194 133 158 	193 149 133 	178 156  86 	176 151  89 	184 159  94 	183 179 167 	154 155 158 	154 154 154 	176 176 176 	168 168 168 	154 154 154 	159 159 158 	181 181 179 	152 152 164 	161 161 154 	189 189  99 	191 191  22 	194 194   0 	195 195   0 	192 192   0 	191 190   0 	190 190   1 	191 193   5 	192  39   7 	190   0   1 	190   0   1 	192  39   7 	191 193   5 	190 190   1 	191 190   0 	192 192   0 	195 195   0 	194 194   0 	191 191  22 	189 189 100 	161 161 154 	152 152 164 	181 181 179 	159 159 158 	154 154 154 	168 168 168 	176 176 176 	154 154 154 	154 155 158 	183 179 167 	184 159  94 	176 152  90 	181 156  82 	170 152 173 	152 139 233 	150 136 222 	173 163 225 	168 168 165 	155 155 156 	155 155 155 	202 202 202 	210 210 210 	
  0   0   0 	105 105 105 	148 148 148 	130 130 130 	148 148 148 	155 160 159 	127 135 132 	128 135 132 	161 166 168 	140 143 151 	129 132 140 	140 143 150 	162 163 164 	133 133 132 	132 132 132 	158 158 158 	148 148 148 	132 132 132 	137 137 137 	165 165 165 	136 136 133 	131 131 133 	148 148 162 	153 153 148 	146 146  84 	173 173  46 	188 188  16 	194 193   0 	196 195   0 	196 198   0 	195  29   0 	195   0   0 	195   0   0 	195  29   0 	196 198   0 	196 195   0 	194 193   0 	188 188  16 	173 173  46 	146 146  84 	153 153 148 	148 148 162 	131 131 133 	136 136 133 	165 165 165 	137 137 137 	132 132 132 	148 148 148 	158 158 158 	132 132 132 	133 133 132 	162 163 164 	140 143 150 	129 132 140 	140 143 152 	164 166 163 	133 135 123 	132 134 124 	159 160 152 	148 148 149 	130 130 130 	148 148 147 	105 105 105 	  0   0   0 	
  0   0   0 	102 102 102 	134 134 134 	117 117 117 	137 137 137 	151 150 150 	123 121 122 	124 123 123 	155 154 154 	131 130 128 	120 119 118 	131 130 129 	155 155 154 	123 123 123 	122 122 122 	150 150 150 	137 137 137 	119 119 119 	125 125 125 	157 157 157 	126 126 126 	122 122 122 	145 145 141 	145 145 147 	117 117 129 	120 120 131 	158 158 151 	147 147 107 	152 151  79 	168 170  69 	178  82  63 	168  38  42 	168  38  42 	178  82  63 	168 170  69 	152 151  79 	147 146 107 	158 158 151 	120 120 131 	117 117 129 	145 145 147 	145 145 141 	122 122 122 	126 126 126 	157 157 157 	125 125 125 	119 119 119 	137 137 137 	150 150 150 	122 122 122 	123 123 123 	155 155 154 	131 130 129 	120 119 118 	131 130 128 	155 154 155 	123 123 125 	122 122 124 	150 150 152 	137 137 137 	117 117 117 	134 134 134 	102 102 102 	  0   0   0 	
  0   0   0 	109 109 109 	154 154 154 	136 136 136 	155 155 155 	154 154 154 	125 125 125 	125 125 125 	160 160 160 	149 149 149 	138 138 138 	149 149 149 	160 160 160 	125 125 125 	125 125 125 	154 154 154 	155 155 155 	138 138 138 	144 144 144 	164 164 164 	128 128 128 	125 125 125 	146 146 146 	160 160 160 	139 139 136 	141 141 139 	165 165 167 	129 129 137 	121 121 133 	134 134 148 	162 172 174 	135 147 147 	135 147 147 	162 172 174 	134 134 148 	121 121 133 	129 129 137 	165 165 167 	141 141 139 	139 139 136 	160 160 160 	146 146 146 	125 125 125 	128 128 128 	164 164 164 	144 144 144 	138 138 138 	155 155 155 	154 154 154 	125 125 125 	125 125 125 	160 160 160 	149 149 149 	138 138 138 	149 149 149 	160 160 160 	125 125 125 	125 125 125 	154 154 154 	155 155 155 	136 136 136 	154 154 154 	109 109 109 	  0   0   0 	
211 211 211 	178 178 178 	 82  82  82 	 87  87  87 	101 101 101 	225 225 225 	230 230 230 	234 234 234 	209 209 209 	 88  88  88 	 88  88  88 	 88  88  88 	209 209 209 	234 234 234 	230 230 230 	225 225 225 	101 101 101 	 87  87  87 	 81  81  81 	188 188 188 	238 238 238 	226 226 226 	235 235 235 	119 119 119 	 84  84  84 	 79  79  79 	165 165 164 	241 241 239 	226 226 222 	241 241 237 	142 139 139 	 82  79  79 	 82  79  79 	142 139 139 	241 241 237 	226 226 222 	241 241 239 	165 165 164 	 79  79  79 	 84  84  84 	119 119 119 	235 235 235 	226 226 226 	238 238 238 	188 188 188 	 81  81  81 	 87  87  87 	101 101 101 	225 225 225 	230 230 230 	234 234 234 	209 209 209 	 88  88  88 	 88  88  88 	 88  88  88 	209 209 209 	234 234 234 	230 230 230 	225 225 225 	101 101 101 	 87  87  87 	 82  82  82 	178 178 178 	211 211 211 	
